<svg xmlns="http://www.w3.org/2000/svg" width="28" height="28" fill="none" viewBox="0 0 28 28"><path stroke="#fff" stroke-linecap="round" stroke-linejoin="round" stroke-width="2.333" d="M21 9.33337C21 7.47686 20.2625 5.69638 18.9497 4.38363C17.637 3.07087 15.8565 2.33337 14 2.33337C12.1435 2.33337 10.363 3.07087 9.05025 4.38363C7.7375 5.69638 7 7.47686 7 9.33337C7 17.5 3.5 19.8334 3.5 19.8334H24.5C24.5 19.8334 21 17.5 21 9.33337Z"/><path stroke="#fff" stroke-linecap="round" stroke-linejoin="round" stroke-width="2.333" d="M16.0171 24.5C15.812 24.8536 15.5176 25.1471 15.1634 25.3511C14.8092 25.5551 14.4076 25.6625 13.9988 25.6625C13.59 25.6625 13.1884 25.5551 12.8342 25.3511C12.48 25.1471 12.1856 24.8536 11.9805 24.5"/></svg>